<?xml version="1.0" encoding="utf-8"?>
<!-- Generator: Adobe Illustrator 25.2.0, SVG Export Plug-In . SVG Version: 6.00 Build 0)  -->
<svg version="1.1" id="Layer_1" xmlns="http://www.w3.org/2000/svg" xmlns:xlink="http://www.w3.org/1999/xlink" x="0px" y="0px"
	 viewBox="0 0 40.3 41.4" style="enable-background:new 0 0 40.3 41.4;" xml:space="preserve">
<style type="text/css">
	.st0{fill:#FFFFFF;}
	.st1{fill:#111213;}
</style>
<g>
	<path class="st0" d="M40.3,20.1C40.3,9,31.3,0,20.1,0C9,0,0,9,0,20.1c0,10,7.4,18.4,17,19.9V26h-5.1v-5.8H17v-4.4
		c0-5,3-7.8,7.6-7.8c2.2,0,4.5,0.4,4.5,0.4v5h-2.5c-2.5,0-3.3,1.6-3.3,3.1v3.8h5.6L28,26h-4.7V40C32.9,38.5,40.3,30.2,40.3,20.1z"/>
	<path class="st1" d="M28,26l0.9-5.8h-5.6v-3.8c0-1.6,0.8-3.1,3.3-3.1h2.5v-5c0,0-2.3-0.4-4.5-0.4c-4.6,0-7.6,2.8-7.6,7.8v4.4h-5.1
		V26H17V40c1,0.2,2.1,0.2,3.1,0.2c1.1,0,2.1-0.1,3.1-0.2V26H28z"/>
</g>
</svg>
