<?xml version="1.0" encoding="utf-8"?>
<!-- Generator: Adobe Illustrator 25.2.0, SVG Export Plug-In . SVG Version: 6.00 Build 0)  -->
<svg version="1.1" id="Layer_1" xmlns="http://www.w3.org/2000/svg" xmlns:xlink="http://www.w3.org/1999/xlink" x="0px" y="0px"
	 viewBox="0 0 64.2 46" style="enable-background:new 0 0 64.2 46;" xml:space="preserve">
<style type="text/css">
	.st0{fill:#111213;}
</style>
<g>
	<g>
		<path class="st0" d="M45.4,7.3c-0.2,0.3-0.4,0.2-0.7,0.2C34.5,7.6,24.3,7.8,14.1,8c-0.2,0-0.5,0.1-0.7-0.1c0.1,0,0.2,0,0.4,0
			c10.4-0.2,20.7-0.4,31.1-0.6C45.1,7.2,45.2,7.3,45.4,7.3z"/>
		<path class="st0" d="M14,38.8c0.2-0.3,0.4-0.2,0.6-0.2c10.2-0.2,20.4-0.4,30.6-0.6c0.2,0,0.5-0.1,0.7,0.1c-0.2,0-0.3,0-0.5,0
			c-10.3,0.2-20.7,0.4-31,0.6C14.3,38.8,14.2,38.8,14,38.8z"/>
		<path class="st0" d="M49.1,16.6c-0.2-1.4-0.2-2.8-0.1-4.3C49.1,13.8,49.1,15.2,49.1,16.6z"/>
		<path class="st0" d="M49.4,33c-0.2-1.4-0.3-2.8-0.1-4.3C49.4,30.1,49.4,31.5,49.4,33z"/>
		<path class="st0" d="M14.7,38.7c10.4-0.2,20.8-0.4,31.2-0.6c0.2,0,0.4-0.1,0.6,0c2-0.3,3.5-2.4,3.5-5.2c-0.1-1.4-0.2-2.8-0.1-4.2
			c0.4,0,0.8,0,1.3-0.1c0.6-0.1,0.9-0.4,0.9-1.3c-0.1-3.2-0.1-6.3-0.2-9.5c0-0.9-0.3-1.2-0.9-1.2c-0.4,0-0.8,0-1.3,0
			c-0.1-1.4-0.1-2.8-0.1-4.2c-0.2-2.7-1.7-4.8-3.7-5c-0.2,0.1-0.4,0.1-0.6,0.1C35,7.6,24.5,7.8,14.1,8c-0.2,0-0.4,0.1-0.6,0
			c-2,0.1-3.7,2.6-3.7,5.5c0.1,6.6,0.2,13.3,0.4,19.9c0.1,2.9,1.8,5.3,3.9,5.4C14.3,38.6,14.5,38.7,14.7,38.7z M12.3,33.7
			c-0.1-0.2-0.1-0.5-0.1-0.7c-0.1-6.4-0.2-12.8-0.4-19.2c0-0.2,0-0.5,0-0.7c0.4-1.6,1.1-2.2,2.3-2.2c10.4-0.2,20.7-0.3,31.1-0.6
			c1.3,0,2.3,1.1,2.3,3c0.1,6.3,0.2,12.6,0.3,18.9c0,1.9-0.7,2.9-2,2.9c-10.4,0.2-20.8,0.4-31.2,0.6C13.6,35.8,12.8,35.2,12.3,33.7z
			"/>
		<path class="st0" d="M14.1,23.2C14,20.1,14,17,13.9,13.9c0-0.6,0.1-0.8,0.5-0.8c1.8,0,3.6,0,5.4-0.1c0.4,0,0.5,0.1,0.5,0.7
			c0.1,6.3,0.2,12.6,0.4,18.9c0,0.6-0.1,0.8-0.5,0.8c-1.8,0-3.6,0-5.4,0.1c-0.4,0-0.5-0.1-0.5-0.7C14.2,29.6,14.1,26.4,14.1,23.2z"
			/>
		<path class="st0" d="M30.4,13c0-0.3,0.2-0.2,0.3-0.2c1.9,0,3.7-0.1,5.6-0.1c0.4,0,0.5,0.1,0.5,0.7c0.1,6.3,0.2,12.6,0.3,18.9
			c0,0.4,0.1,0.7-0.3,0.7c-2,0-3.9,0.1-5.9,0.1c-0.1,0-0.2,0-0.2-0.2c0.1-0.2,0-0.4,0-0.6c-0.1-6.2-0.2-12.5-0.4-18.7
			C30.4,13.4,30.5,13.2,30.4,13z"/>
		<path class="st0" d="M45.2,32.8c-2,0-3.9,0.1-5.9,0.2c-0.3,0-0.4-0.1-0.4-0.6c-0.1-6.4-0.2-12.7-0.4-19.1c0-0.5,0.1-0.6,0.4-0.6
			c2,0,3.9,0,5.9-0.1c0.1,0.2,0.1,0.5,0.1,0.7c0.1,6.3,0.2,12.6,0.4,18.8C45.3,32.4,45.3,32.6,45.2,32.8z"/>
		<path class="st0" d="M22.2,13.2c0-0.2,0.1-0.2,0.2-0.2c2,0,4-0.1,6-0.1c0.1,0.2,0.1,0.5,0.1,0.7c0.1,6.3,0.2,12.6,0.4,18.8
			c0,0.2,0,0.5,0,0.7c-2,0-4,0.1-6,0.1c-0.1,0-0.2,0-0.2-0.2c0.1-0.2,0.1-0.4,0.1-0.6c-0.1-6.3-0.2-12.5-0.4-18.8
			C22.3,13.6,22.3,13.4,22.2,13.2z"/>
		<path class="st0" d="M45.2,32.8c-0.1-6.7-0.3-13.5-0.4-20.2c0.2,0.1,0.1,0.4,0.1,0.6c0.1,6.3,0.2,12.7,0.4,19
			C45.3,32.4,45.5,32.7,45.2,32.8z"/>
		<path class="st0" d="M28.8,33.2c-0.1-6.7-0.3-13.5-0.4-20.2c0.2,0.1,0.1,0.5,0.1,0.7c0.1,6.3,0.2,12.6,0.4,18.9
			C28.9,32.7,29,33,28.8,33.2z"/>
		<path class="st0" d="M30.4,13c0.2,0.2,0.1,0.6,0.1,0.8c0.1,6.1,0.2,12.2,0.3,18.2c0,0.3,0.1,0.6-0.1,0.8
			C30.6,26.3,30.5,19.7,30.4,13z"/>
		<path class="st0" d="M22.2,13.2c0.2,0.2,0.1,0.6,0.1,0.9c0.1,6,0.2,12.1,0.3,18.1c0,0.3,0.1,0.7-0.1,0.9c-0.1-2.7-0.1-5.4-0.2-8.1
			C22.3,21.1,22.2,17.1,22.2,13.2z"/>
	</g>
</g>
</svg>
