<?xml version="1.0" encoding="utf-8"?>
<!-- Generator: Adobe Illustrator 25.2.0, SVG Export Plug-In . SVG Version: 6.00 Build 0)  -->
<svg version="1.1" id="Layer_1" xmlns="http://www.w3.org/2000/svg" xmlns:xlink="http://www.w3.org/1999/xlink" x="0px" y="0px"
	 viewBox="0 0 64.2 46" style="enable-background:new 0 0 64.2 46;" xml:space="preserve">
<style type="text/css">
	.st0{fill:#111213;}
</style>
<path class="st0" d="M47,30.2c-0.3-0.3-0.7-0.4-1-0.7c-3.2-2.2-6.5-4.3-9.8-6.6c0.4-0.3,0.8-0.6,1.1-0.8c3.1-2.1,6.2-4.1,9.2-6.2
	c1.9-1.3,1.9-3,0-4.3c-4.2-2.8-8.4-5.6-12.7-8.5c-0.9-0.6-1.8-1-2.8-0.5c-1.1,0.6-1.3,1.6-1.3,2.7c0,4,0,8.1,0,12.1
	c0,0.3,0.1,0.7-0.1,1.1c-0.3-0.2-0.6-0.4-0.8-0.6c-3-2-6-4-9.1-6c-1.2-0.8-2.5-0.5-3.2,0.6c-0.7,1-0.4,2.3,0.7,3.2
	c0.3,0.2,0.6,0.4,0.9,0.6c3.2,2.2,6.5,4.3,9.8,6.6c-0.4,0.3-0.8,0.6-1.1,0.8c-3.1,2.1-6.2,4.1-9.2,6.2c-1.4,1-1.8,2.2-1.1,3.4
	c0.8,1.2,2.1,1.3,3.5,0.4c1.5-1,3-2,4.5-3c1.7-1.1,3.4-2.2,5.3-3.5c0,1,0,1.8,0,2.6c0,3.7,0,7.4,0,11c0,2.1,1.8,3.3,3.4,2.3
	c4.6-3,9.2-6.1,13.8-9.2C48.4,33,48.3,31.3,47,30.2z M34.4,9.1c2.4,1.6,4.8,3.2,7.3,4.8c-2.4,1.6-4.8,3.2-7.3,4.9
	C34.4,15.5,34.4,12.3,34.4,9.1z M38.9,33.9c-1.5,1-2.9,1.9-4.6,3c0-3.3,0-6.4,0-9.7c1.6,1.1,3.1,2,4.5,3c0.9,0.6,1.9,1,2.6,1.9
	C40.6,32.7,39.8,33.3,38.9,33.9z"/>
</svg>
