<?xml version="1.0" encoding="utf-8"?>
<!-- Generator: Adobe Illustrator 25.2.0, SVG Export Plug-In . SVG Version: 6.00 Build 0)  -->
<svg version="1.1" id="Layer_1" xmlns="http://www.w3.org/2000/svg" xmlns:xlink="http://www.w3.org/1999/xlink" x="0px" y="0px"
	 viewBox="0 0 64.2 46" style="enable-background:new 0 0 64.2 46;" xml:space="preserve">
<style type="text/css">
	.st0{fill:#111213;}
</style>
<path class="st0" d="M45.2,7.1c0-0.2,0-0.3,0-0.5l0,0c0,0,0,0,0,0c0-2.1,0-4.2,0-6.3c-0.9,0.5-1.7,1-2.5,1.4c-3,1.7-6.1,3.4-9.1,5.2
	c-2.3,1.3-4.7,2.7-7,4c-2.1,1.2-4.1,2.3-6.2,3.5c-0.1,0.2,0,0.3,0,0.5c0,6,0,11.9,0,17.9c0,0.1,0,0.2,0,0.3c0,0.1-0.1,0.2-0.2,0.2
	c0,0-0.1,0-0.1,0c-2.8-0.4-5.3,1-6.3,3.6c-1.2,3.4,1.5,7.1,5.2,7.1c3,0,5.4-2.2,5.6-4.9c0,0,0,0,0,0c0,0,0,0,0.1,0
	c0.1-0.1,0-0.3,0-0.4c0-3.8,0-7.5,0-11.3c0-0.4,0-0.8,0.1-1.2c0.2-0.1,0.3-0.2,0.5-0.3c5.2-3,10.4-5.9,15.7-8.9
	c0.1,0,0.1-0.2,0.3-0.1c0,2.5,0,5,0,7.5c0,0.3-0.1,0.3-0.4,0.3c-0.6-0.1-1.2-0.1-1.8,0c-3.8,0.6-5.8,4.6-4,7.9
	c1,1.9,2.7,2.8,4.8,2.9c2.2,0,3.8-1,4.9-2.9c0.6-1,0.7-2.1,0.7-3.2C45.2,21.9,45.2,14.5,45.2,7.1z M40.9,13c0,0.4-0.1,0.7-0.5,0.9
	c-0.4,0.2-0.8,0.5-1.2,0.7c-4.7,2.6-9.3,5.3-14,7.9c-0.4,0.2-0.4,0.2-0.4-0.2c0-1.1,0-2.2,0-3.4c0-0.2,0-0.4-0.2-0.6v0
	c3-1.7,6-3.4,9-5.1c2.2-1.2,4.4-2.5,6.6-3.7C40.4,9.3,40.7,9.2,41,9c-0.1,0.3-0.1,0.5-0.1,0.8C40.9,10.8,40.9,11.9,40.9,13z"/>
</svg>
