<svg id="Layer_1" data-name="Layer 1" xmlns="http://www.w3.org/2000/svg" viewBox="0 0 64.15 46.03"><defs><style>.cls-1{fill:#111213;}</style></defs><path class="cls-1" d="M55.43,21.88c-1.09,0-2.18,0-3.27,0a.89.89,0,0,1-1.07-.75A6.74,6.74,0,0,0,38.17,21,1,1,0,0,1,37,21.9c-4.66,0-9.32,0-14,0H11.26c-.89,0-1.77,0-2.66,0-.74,0-1.26.33-1.25,1.14s.55,1.11,1.29,1.12H36.92c.62,0,1,.05,1.23.8a6.74,6.74,0,0,0,13-.08.83.83,0,0,1,1-.72c1.12,0,2.25,0,3.37,0,.78,0,1.37-.27,1.36-1.15S56.19,21.88,55.43,21.88ZM44.68,27.51a4.5,4.5,0,1,1,0-9,4.5,4.5,0,0,1,0,9Z"/><path class="cls-1" d="M55.81,37.1a7,7,0,0,0-.92,0h-28c-.53,0-.91,0-1.12-.67a6.73,6.73,0,0,0-13,0c-.17.54-.38.69-.91.67-1,0-2,0-3.06,0-.82,0-1.47.2-1.46,1.15s.71,1.12,1.5,1.11c1,0,1.91,0,2.86,0a.92.92,0,0,1,1.13.79,6.74,6.74,0,0,0,12.92,0,1,1,0,0,1,1.12-.82c4.69,0,9.39,0,14.09,0H55a3.94,3.94,0,0,0,.91,0,1.07,1.07,0,0,0,.95-1.14A1,1,0,0,0,55.81,37.1Zm-32,1.23a4.48,4.48,0,0,1-4.58,4.36,4.53,4.53,0,0,1-4.45-4.51,4.58,4.58,0,0,1,4.6-4.49A4.53,4.53,0,0,1,23.8,38.33Z"/><path class="cls-1" d="M55.54,6.69c-.24,0-.47,0-.71,0-5.92,0-11.85,0-17.77,0-.68,0-1-.13-1.19-.85a6.75,6.75,0,0,0-12.9,0c-.21.72-.51.86-1.18.86-4.26,0-8.51,0-12.77,0A1.83,1.83,0,0,0,7.75,7a1.08,1.08,0,0,0-.34,1.29c.22.6.74.71,1.33.71H21.81c.6,0,.93.06,1.13.78a6.75,6.75,0,0,0,13,0c.18-.64.45-.77,1-.76C40,9,43.08,9,46.14,9h9.4c.76,0,1.27-.31,1.28-1.12S56.28,6.72,55.54,6.69ZM29.42,12.34a4.51,4.51,0,0,1-4.49-4.56,4.5,4.5,0,0,1,9,.1A4.51,4.51,0,0,1,29.42,12.34Z"/></svg>