<?xml version="1.0" encoding="utf-8"?>
<!-- Generator: Adobe Illustrator 25.2.0, SVG Export Plug-In . SVG Version: 6.00 Build 0)  -->
<svg version="1.1" id="Layer_1" xmlns="http://www.w3.org/2000/svg" xmlns:xlink="http://www.w3.org/1999/xlink" x="0px" y="0px"
	 viewBox="0 0 40.3 41.4" style="enable-background:new 0 0 40.3 41.4;" xml:space="preserve">
<style type="text/css">
	.st0{fill:#FFFFFF;}
	.st1{fill:#111213;}
</style>
<g>
	<g>
		
			<ellipse transform="matrix(0.7071 -0.7071 0.7071 0.7071 -8.7631 20.2679)" class="st0" cx="20.1" cy="20.7" rx="20.1" ry="20.1"/>
		<g>
			<g>
				<g>
					<path class="st1" d="M26.3,13.1c-0.8,0-1.4,0.6-1.4,1.4c0,0.8,0.6,1.4,1.4,1.4c0.8,0,1.4-0.6,1.4-1.4
						C27.7,13.7,27.1,13.1,26.3,13.1z"/>
					<path class="st1" d="M20.2,14.9c-3.2,0-5.8,2.6-5.8,5.8c0,3.2,2.6,5.8,5.8,5.8c3.2,0,5.8-2.6,5.8-5.8
						C26,17.5,23.4,14.9,20.2,14.9z M20.2,24.4c-2,0-3.7-1.7-3.7-3.7s1.7-3.7,3.7-3.7c2,0,3.7,1.7,3.7,3.7S22.2,24.4,20.2,24.4z"/>
					<path class="st1" d="M24.8,32.5h-9.4c-3.9,0-7.1-3.2-7.1-7.1V16c0-3.9,3.2-7.1,7.1-7.1h9.4c3.9,0,7.1,3.2,7.1,7.1v9.4
						C31.9,29.3,28.7,32.5,24.8,32.5z M15.4,11.1c-2.7,0-4.9,2.2-4.9,4.9v9.4c0,2.7,2.2,4.9,4.9,4.9h9.4c2.7,0,4.9-2.2,4.9-4.9V16
						c0-2.7-2.2-4.9-4.9-4.9H15.4z"/>
				</g>
			</g>
		</g>
	</g>
</g>
</svg>
