<?xml version="1.0" encoding="utf-8"?>
<!-- Generator: Adobe Illustrator 25.2.0, SVG Export Plug-In . SVG Version: 6.00 Build 0)  -->
<svg version="1.1" id="Layer_1" xmlns="http://www.w3.org/2000/svg" xmlns:xlink="http://www.w3.org/1999/xlink" x="0px" y="0px"
	 viewBox="0 0 219.1 56.4" style="enable-background:new 0 0 219.1 56.4;" xml:space="preserve">
<style type="text/css">
	.st0{fill:#EA6C41;}
	.st1{fill:#DDD9DB;}
	.st2{fill:#F2F1F0;}
	.st3{font-family:'MyriadPro-Bold';}
	.st4{font-size:27.3195px;}
</style>
<g>
	<path class="st0" d="M23.9,29.4c0-0.3,0-0.5,0-0.8c0-8.6,0-17.2,0-25.7c0-0.4,0.1-0.5,0.5-0.5c1,0,2.1,0,3.1,0
		c0.4,0,0.5,0.1,0.4,0.5c0,1.4,0,2.8,0,4.2c0,0.3,0.1,0.5,0.3,0.7c1.3,1.5,2.9,2.5,4.7,3.3c4.6,2,7.7,5.5,9.2,10.3
		c0.2,0.6,0.3,1.2,0.3,1.7c0,0.1,0.2,0.4-0.1,0.4c-0.2,0-0.5,0.2-0.7-0.2c-0.4-1-1-1.8-1.7-2.6c-1.6-1.7-3.6-2.8-5.8-3.4
		c-1.9-0.5-3.8-1-5.6-1.6c-0.4-0.1-0.4-0.1-0.4,0.3c0,6.4,0,12.9,0,19.3c0,2.3-0.9,4.1-2.8,5.4c-2.1,1.5-5,1.4-7.1,0
		c-2.2-1.5-3.3-4.1-2.7-6.6c0.6-2.6,2.6-4.5,5.2-5c1-0.2,2-0.1,3,0.2C23.6,29.4,23.7,29.4,23.9,29.4z"/>
	<path class="st1" d="M22.1,51.9c-8.1,0-15.1-5.7-16.8-13.7C3.3,29.3,9,20.3,17.9,18c0.5-0.1,0.5-0.1,0.5,0.4c0,0.5,0,0.9,0,1.4
		c0,0.3-0.1,0.4-0.4,0.5c-2.9,0.8-5.3,2.4-7.2,4.7c-5.2,6-4.7,15,1,20.5c4.6,4.4,11.4,5.4,17.1,2.5c0.3-0.1,0.4-0.1,0.5,0.2
		c0.2,0.5,0.4,0.9,0.6,1.4c0.1,0.3,0.1,0.4-0.2,0.5C27.5,51.3,24.8,51.9,22.1,51.9z"/>
	<path class="st1" d="M22,47.2c-4.3-0.1-7.7-1.8-10.2-5.3c-1.3-1.9-2.1-3.9-2.2-6.2c-0.2-3.7,0.9-6.8,3.4-9.5c0.1-0.2,0.2-0.2,0.4,0
		c0.4,0.4,0.8,0.8,1.3,1.1c0.2,0.2,0.2,0.3,0,0.5c-1.4,1.4-2.3,3.2-2.7,5.2c-0.5,2.8,0,5.3,1.6,7.6c1.9,2.7,4.5,4.1,7.8,4.4
		c5.1,0.3,9.7-3.2,10.6-8.3c0.1-0.5,0.1-1.1,0.2-1.6c0-0.2,0.1-0.3,0.3-0.3c0.5,0,1,0,1.6,0c0.3,0,0.4,0.1,0.4,0.4
		c-0.1,2.3-0.7,4.4-1.9,6.3c-2.1,3.2-5,5-8.7,5.7c-0.3,0-0.6,0.1-0.9,0.1C22.6,47.2,22.3,47.2,22,47.2z"/>
	<text transform="matrix(1 0 0 1 48.4114 36.8865)" class="st2 st3 st4">Bass boaster</text>
</g>
</svg>
