<?xml version="1.0" encoding="utf-8"?>
<!-- Generator: Adobe Illustrator 25.2.0, SVG Export Plug-In . SVG Version: 6.00 Build 0)  -->
<svg version="1.1" id="Layer_1" xmlns="http://www.w3.org/2000/svg" xmlns:xlink="http://www.w3.org/1999/xlink" x="0px" y="0px"
	 viewBox="0 0 40.3 41.4" style="enable-background:new 0 0 40.3 41.4;" xml:space="preserve">
<style type="text/css">
	.st0{fill:#FFFFFF;}
	.st1{fill:#111213;}
</style>
<g>
	<circle class="st0" cx="20.1" cy="20.1" r="20.1"/>
	<path class="st1" d="M31.3,13.2c-0.7,0.3-1.5,0.5-2.2,0.6c0.4-0.1,0.9-0.7,1.1-1c0.3-0.4,0.6-0.9,0.7-1.3c0,0,0-0.1,0-0.1
		c0,0-0.1,0-0.1,0c-0.8,0.4-1.7,0.8-2.6,1c-0.1,0-0.1,0-0.2,0c-0.1-0.1-0.1-0.2-0.2-0.2c-0.4-0.3-0.8-0.6-1.3-0.8
		c-0.6-0.3-1.3-0.4-2-0.3c-0.6,0-1.3,0.2-1.9,0.5c-0.6,0.3-1.1,0.7-1.5,1.2c-0.4,0.5-0.7,1.1-0.9,1.8c-0.2,0.6-0.1,1.3,0,1.9
		c0,0.1,0,0.1-0.1,0.1c-3.6-0.5-6.6-1.8-9-4.6c-0.1-0.1-0.2-0.1-0.2,0c-1.1,1.6-0.5,4.2,0.8,5.4c0.2,0.2,0.4,0.3,0.6,0.5
		c-0.1,0-1-0.1-1.7-0.5c-0.1-0.1-0.2,0-0.2,0.1c0,0.2,0,0.3,0,0.5c0.2,1.6,1.3,3.1,2.9,3.7c0.2,0.1,0.4,0.1,0.6,0.2
		C13.3,22,13,22.1,12,22c-0.1,0-0.2,0-0.1,0.2c0.8,2.1,2.4,2.7,3.6,3c0.2,0,0.3,0,0.5,0.1c0,0,0,0,0,0c-0.4,0.6-1.8,1.1-2.5,1.3
		C12.3,27,11,27.1,9.7,27c-0.2,0-0.2,0-0.3,0c-0.1,0,0,0.1,0.1,0.1c0.3,0.2,0.5,0.3,0.8,0.5c0.8,0.4,1.6,0.8,2.5,1
		c4.5,1.2,9.5,0.3,12.9-3c2.6-2.6,3.6-6.2,3.6-9.9c0-0.1,0.2-0.2,0.3-0.3c0.7-0.5,1.2-1.1,1.8-1.8C31.3,13.4,31.3,13.3,31.3,13.2
		C31.3,13.2,31.3,13.2,31.3,13.2C31.3,13.2,31.3,13.2,31.3,13.2z"/>
</g>
</svg>
