<?xml version="1.0" standalone="no"?>
<!DOCTYPE svg PUBLIC "-//W3C//DTD SVG 20010904//EN"
 "http://www.w3.org/TR/2001/REC-SVG-20010904/DTD/svg10.dtd">
<svg version="1.0" xmlns="http://www.w3.org/2000/svg"
 width="245.000000pt" height="245.000000pt" viewBox="0 0 245.000000 245.000000"
 preserveAspectRatio="xMidYMid meet">
<metadata>
Created by potrace 1.14, written by Peter Selinger 2001-2017
</metadata>
<g transform="translate(0.000000,245.000000) scale(0.100000,-0.100000)"
fill="#000000" stroke="none">
<path d="M1242 2262 c-9 -3 -12 -142 -12 -561 l0 -558 -49 10 c-38 7 -61 5
-107 -8 -242 -70 -271 -388 -45 -497 127 -62 283 -7 353 123 23 44 23 47 25
429 2 212 3 414 3 449 0 56 2 62 18 56 9 -3 76 -22 147 -42 72 -19 160 -51
198 -70 71 -38 157 -121 185 -180 10 -20 22 -33 32 -31 20 4 15 55 -15 133
-71 189 -178 297 -400 404 -52 25 -142 94 -160 121 -5 8 -12 62 -15 120 l-5
105 -71 0 c-39 1 -76 -1 -82 -3z"/>
<path d="M965 1613 c-48 -12 -145 -59 -207 -99 -196 -130 -318 -355 -318 -589
-2 -343 231 -632 570 -710 128 -29 305 -11 436 45 49 21 51 34 18 87 l-14 22
-47 -20 c-139 -60 -301 -66 -445 -18 -152 51 -280 164 -353 311 -50 102 -65
166 -67 273 -3 256 165 499 405 587 31 11 57 25 58 29 0 5 1 23 1 39 0 55 2
52 -37 43z"/>
<path d="M746 1239 c-125 -147 -149 -397 -53 -569 80 -145 227 -249 375 -265
26 -3 68 -8 93 -11 87 -10 256 53 334 124 53 48 104 117 131 176 29 63 56 196
43 210 -5 5 -27 10 -49 11 -36 1 -41 -1 -45 -24 -28 -148 -61 -217 -140 -290
-164 -151 -424 -144 -581 15 -29 29 -67 83 -85 120 -32 65 -34 75 -34 174 0
101 2 108 37 180 20 41 48 86 62 99 l26 24 -36 34 c-19 18 -37 33 -39 33 -2 0
-19 -18 -39 -41z"/>
</g>
</svg>
